PathFileType	4	(X/Y/Z)	C:/Users/opensim2020/Desktop/walking_exp_matlab/subject03_walking12_straight_01.trc																																																																																																																																														
DataRate	CameraRate	NumFrames	NumMarkers	Units	OrigDataRate	OrigDataStartFrame	OrigNumFrames																																																																																																																																										
100	100	7	48	mm	100	607	211																																																																																																																																										
Frame#	Time	LFHD			RFHD			LBHD			RBHD			C7			T10			CLAV			STRN			RBAK			LSHO			LUPA			LELB			LFRM			LWRA			LWRB			LFIN			RSHO			RUPA			RELB			RFRM			RWRA			RWRB			RFIN			LASI			RASI			LPSI			RPSI			LTHI			LKNE			LTIB			LANK			LHEE			LTOE			RTHI			RKNE			RTIB			RANK			RHEE			RTOE			*39			*40			*41			*42			*43			*44			*45			*46			*47		
		X1	Y1	Z1	X2	Y2	Z2	X3	Y3	Z3	X4	Y4	Z4	X5	Y5	Z5	X6	Y6	Z6	X7	Y7	Z7	X8	Y8	Z8	X9	Y9	Z9	X10	Y10	Z10	X11	Y11	Z11	X12	Y12	Z12	X13	Y13	Z13	X14	Y14	Z14	X15	Y15	Z15	X16	Y16	Z16	X17	Y17	Z17	X18	Y18	Z18	X19	Y19	Z19	X20	Y20	Z20	X21	Y21	Z21	X22	Y22	Z22	X23	Y23	Z23	X24	Y24	Z24	X25	Y25	Z25	X26	Y26	Z26	X27	Y27	Z27	X28	Y28	Z28	X29	Y29	Z29	X30	Y30	Z30	X31	Y31	Z31	X32	Y32	Z32	X33	Y33	Z33	X34	Y34	Z34	X35	Y35	Z35	X36	Y36	Z36	X37	Y37	Z37	X38	Y38	Z38	X39	Y39	Z39	X40	Y40	Z40	X41	Y41	Z41	X42	Y42	Z42	X43	Y43	Z43	X44	Y44	Z44	X45	Y45	Z45	X46	Y46	Z46	X47	Y47	Z47	X48	Y48	Z48
																																																																																																																																																	
53	0.52	-853.55072	1616.24658	-1049.00391	-866.62134	1621.2644	-916.06226	-969.15723	1547.3894	-1054.54822	-978.31744	1552.75378	-923.48773	-985.75287	1404.479	-987.10797	-1042.23071	1101.39258	-984.05566	-865.76544	1325.48096	-991.31787	-834.57782	1155.07056	-998.73749	-1039.91138	1236.72705	-885.69318	-918.0896	1367.35535	-1145.28516	-951.51624	1171.56604	-1215.22925	-951.15692	1048.11536	-1225.75916	-917.50647	922.51379	-1222.99438	-885.4668	809.01624	-1190.03247	-915.29749	808.98425	-1236.98828	-886.69867	730.82037	-1228.66846	-903.85968	1352.78687	-831.04413	-882.75232	1133.68811	-755.21808	-854.25836	1024.16528	-743.76184	-821.17346	891.43378	-745.6803	-787.68152	799.62909	-787.29871	-807.30475	792.21729	-737.4411	-779.49884	723.69458	-753.27039	-900.67755	925.19293	-1102.97058	-894.44763	923.08911	-869.46753	-1060.90576	954.49176	-1052.90356	-1052.08484	968.69342	-903.70142	-880.35541	638.34924	-1165.31482	-797.42572	479.59943	-1140.04028	-860.55615	289.8157	-1129.48669	-904.89313	86.98972	-1080.04333	-948.18555	56.36854	-1037.44702	-764.93219	42.2924	-1067.19006	-979.90674	633.32532	-826.69196	-994.42554	456.10861	-865.64111	-1071.35242	277.43753	-855.63129	-1143.40967	71.03545	-898.28235	-1195.35352	41.28401	-945.36853	-1007.56427	32.13092	-914.85516	-951.67358	1658.65149	-1006.91315	NaN	NaN	NaN	NaN	NaN	NaN	NaN	NaN	NaN	NaN	NaN	NaN	NaN	NaN	NaN	NaN	NaN	NaN	NaN	NaN	NaN	NaN	NaN	NaN
54	0.53	-841.94214	1614.50378	-1050.27234	-854.91443	1620.02637	-917.40948	-957.3786	1545.43555	-1055.58057	-966.35175	1551.22974	-924.59131	-973.72107	1403.11682	-987.52979	-1030.95215	1099.96875	-983.93274	-853.81433	1323.89661	-991.84009	-823.08813	1153.3468	-999.12561	-1028.10632	1235.36255	-885.76062	-906.51801	1365.46948	-1145.81628	-941.7757	1169.91406	-1215.64185	-943.18787	1046.4657	-1226.68408	-913.12494	919.77814	-1224.76929	-884.02484	805.13245	-1193.4093	-914.54797	806.32727	-1239.82336	-888.30054	727.34424	-1232.55249	-891.63684	1351.28833	-831.47498	-868.79938	1132.50452	-755.59436	-838.71405	1023.43182	-744.1153	-803.33649	891.33447	-746.35321	-767.93488	800.37958	-788.37683	-787.67651	792.38782	-738.58795	-758.41827	724.44214	-754.56506	-888.63123	924.21454	-1103.14417	-883.49268	921.42126	-869.61932	-1049.29614	952.22626	-1053.69873	-1040.93665	966.34454	-904.28516	-863.74591	639.42578	-1166.35327	-780.60931	480.93646	-1139.08813	-832.69373	287.38483	-1131.02209	-863.81665	81.36513	-1083.5636	-905.73505	48.74754	-1041.75793	-721.52325	42.55303	-1069.02588	-971.38995	632.11127	-827.44159	-989.31549	454.99423	-865.74231	-1068.54016	277.43948	-855.85797	-1143.15393	71.97562	-898.49927	-1195.23364	42.6156	-945.32062	-1007.55927	31.97654	-914.99756	-940.06445	1656.83618	-1008.33295	NaN	NaN	NaN	NaN	NaN	NaN	NaN	NaN	NaN	NaN	NaN	NaN	NaN	NaN	NaN	NaN	NaN	NaN	NaN	NaN	NaN	NaN	NaN	NaN
55	0.54	-830.20917	1612.70447	-1051.6687	-843.17371	1618.57837	-918.84924	-945.55634	1543.35083	-1056.65259	-954.50836	1549.64075	-925.67084	-961.56128	1401.60156	-987.98932	-1019.58881	1098.47339	-984.06317	-841.79559	1322.23669	-992.44446	-811.54901	1151.50122	-999.46362	-1016.21082	1233.90198	-885.93469	-894.70636	1363.57605	-1146.40747	-931.69342	1168.16272	-1216.22742	-934.95557	1044.72791	-1227.60278	-908.55798	917.19006	-1226.8667	-882.57074	801.40216	-1196.75391	-913.62366	803.93591	-1242.65735	-889.86145	724.05341	-1236.05774	-879.29083	1349.64587	-831.87195	-854.92847	1131.27026	-756.00354	-823.42902	1022.61395	-744.46436	-785.69891	891.18744	-747.12848	-748.42249	801.21289	-789.37598	-768.35425	792.45062	-739.7171	-737.56403	725.40491	-755.7442	-876.08691	923.37195	-1103.5686	-872.19006	919.74426	-869.88593	-1037.49573	949.72766	-1054.6499	-1029.83386	963.79425	-905.12756	-847.92004	639.61542	-1167.17017	-764.55774	481.69928	-1138.04749	-806.04608	285.43512	-1132.49585	-824.25543	76.87114	-1087.63159	-864.01752	42.3934	-1045.95264	-679.48669	43.31177	-1070.87732	-963.05505	631.11108	-827.78406	-983.90308	454.03955	-866.02887	-1065.61426	277.64926	-856.13489	-1142.95764	73.09886	-898.43768	-1195.03992	44.252	-945.36108	-1007.5354	31.96503	-915.0614	-928.30225	1655.19226	-1009.76801	NaN	NaN	NaN	NaN	NaN	NaN	NaN	NaN	NaN	NaN	NaN	NaN	NaN	NaN	NaN	NaN	NaN	NaN	NaN	NaN	NaN	NaN	NaN	NaN
56	0.55	-818.47174	1610.85083	-1053.08228	-831.41138	1617.17004	-920.21698	-933.65076	1541.224	-1057.75781	-942.56714	1547.96436	-926.81104	-949.25452	1399.94775	-988.42468	-1008.30865	1096.99951	-984.46924	-829.67383	1320.37976	-992.90417	-799.72272	1149.63123	-1000.01172	-1004.24298	1232.44397	-886.19342	-882.73859	1361.48828	-1146.9408	-921.40002	1166.20044	-1216.53748	-926.47864	1042.96631	-1228.43799	-903.85394	914.67828	-1228.86304	-881.85132	797.56097	-1199.11731	-912.2381	801.59094	-1245.14917	-891.18121	720.98767	-1239.20667	-866.96783	1347.98792	-832.32141	-841.17944	1129.90686	-756.51941	-808.39709	1021.70355	-744.84991	-768.35175	890.95978	-747.85089	-729.06757	801.9621	-790.33813	-749.1582	792.58533	-741.09589	-716.8952	726.35559	-757.12488	-863.64355	922.31818	-1103.75732	-860.79352	918.01263	-870.15912	-1025.49109	947.12897	-1055.77478	-1018.67004	961.00079	-906.19904	-831.66376	639.46179	-1168.72388	-749.23529	481.8616	-1136.88916	-780.88226	283.90662	-1133.82031	-785.96246	73.94729	-1091.50842	-824.12616	37.58303	-1051.16284	-639.33563	44.82736	-1072.53357	-954.29596	630.11768	-828.28046	-978.21979	453.15439	-866.17474	-1062.5199	278.08722	-856.45892	-1142.41089	74.37008	-898.78809	-1194.82275	46.34259	-945.59546	-1007.5271	31.87455	-915.17969	NaN	NaN	NaN	NaN	NaN	NaN	NaN	NaN	NaN	NaN	NaN	NaN	NaN	NaN	NaN	NaN	NaN	NaN	NaN	NaN	NaN	NaN	NaN	NaN	NaN	NaN	NaN
57	0.56	-806.67828	1608.91101	-1054.4187	-819.65356	1615.69324	-921.62396	-921.68536	1539.05811	-1058.92151	-930.57422	1546.22217	-927.99982	-936.87988	1398.2074	-988.93738	-996.79047	1095.45984	-985.09283	-817.2879	1318.53625	-993.57587	-787.95081	1147.57251	-1000.44812	-992.15985	1230.93921	-886.55756	-870.64209	1359.41296	-1147.54333	-910.86395	1164.323	-1217.02063	-917.91339	1041.24158	-1229.37805	-898.82196	912.32904	-1230.75378	-880.45471	794.24255	-1201.67346	-910.40533	799.7323	-1248.00391	-892.17914	718.25745	-1242.1521	-854.27325	1346.15137	-832.9408	-827.50861	1128.49585	-757.03314	-793.58661	1020.7182	-745.2793	-751.32611	890.68689	-748.64929	-709.95422	802.80786	-791.46973	-730.38043	792.60199	-742.37872	-696.51434	727.42987	-758.34143	-850.75165	921.29834	-1104.02173	-849.33264	916.36176	-870.48285	-1013.24628	944.40546	-1057.12219	-1007.4458	958.04578	-907.46759	-817.18079	638.29791	-1169.14832	-734.39886	481.4158	-1135.7157	-757.17926	282.69351	-1134.98853	-749.90796	72.2653	-1095.36328	-786.81598	34.47841	-1055.53101	-601.64081	47.52842	-1074.07019	-945.31067	629.27863	-828.71234	-971.9082	452.43527	-866.36884	-1059.08533	278.74554	-856.84894	-1141.82422	76.05824	-899.02002	-1194.4082	48.55458	-946.06995	-1007.40991	31.78756	-915.25848	-904.85559	1651.20996	-1012.86334	NaN	NaN	NaN	NaN	NaN	NaN	NaN	NaN	NaN	NaN	NaN	NaN	NaN	NaN	NaN	NaN	NaN	NaN	NaN	NaN	NaN	NaN	NaN	NaN
58	0.57	-794.77716	1606.92883	-1055.83569	-807.73035	1614.12866	-923.05463	-909.70782	1536.88062	-1060.10596	-918.56964	1544.45544	-929.21503	-924.29321	1396.39941	-989.48364	-985.09399	1093.94312	-986.01129	-804.76111	1316.51172	-994.23254	-776.15027	1145.36475	-1000.84967	-979.90924	1229.44556	-887.0603	-858.23773	1357.36987	-1148.27051	-900.08942	1162.36841	-1217.62402	-908.96802	1039.56946	-1230.38989	-893.41107	910.10919	-1232.52893	-878.86206	791.20673	-1204.14941	-908.38043	797.86023	-1250.58215	-893.1051	715.6839	-1244.88599	-841.60303	1344.28125	-833.48822	-814.0473	1126.96729	-757.54541	-779.07935	1019.60864	-745.77045	-734.45294	890.35205	-749.59821	-691.36108	803.59357	-792.65479	-711.93958	792.65833	-743.79712	-676.34705	728.55322	-759.7912	-837.57794	920.30988	-1104.45984	-837.69324	914.72186	-870.78607	-1000.79199	941.73926	-1058.59253	-996.08679	955.04333	-908.88123	-802.56757	637.08032	-1169.54919	-719.71661	480.64273	-1134.36633	-734.56226	281.73691	-1135.85718	-716.57446	71.56459	-1098.59985	-752.31244	32.29598	-1059.47388	-567.09595	51.493	-1075.34595	-935.91132	628.40198	-829.17249	-964.81818	451.67795	-866.48743	-1055.1145	279.53339	-857.21912	-1141.16296	77.83812	-899.48328	-1193.86096	51.1696	-946.5318	-1007.28833	31.75472	-915.27283	-893.14819	1648.90198	-1014.32251	NaN	NaN	NaN	NaN	NaN	NaN	NaN	NaN	NaN	NaN	NaN	NaN	NaN	NaN	NaN	NaN	NaN	NaN	NaN	NaN	NaN	NaN	NaN	NaN
59	0.58	-782.8689	1604.9696	-1057.32349	-795.82471	1612.56348	-924.54321	-897.67816	1534.72375	-1061.37	-906.58948	1542.68896	-930.46936	-911.56946	1394.60803	-990.17548	-973.06226	1092.35974	-987.06146	-792.08374	1314.48938	-994.9953	-763.88599	1143.26868	-1001.51074	-967.5415	1228.01501	-887.65546	-845.71307	1355.32568	-1149.02393	-889.22607	1160.60461	-1218.34546	-899.82361	1038.00842	-1231.56604	-887.58514	908.0235	-1234.09155	-877.09729	788.41309	-1206.49976	-905.92706	796.38269	-1253.23083	-893.76172	713.49127	-1247.52393	-828.82214	1342.34021	-834.27783	-800.71039	1125.43298	-758.07507	-764.80255	1018.43481	-746.25513	-718.04083	890.0033	-750.50665	-673.04266	804.42963	-793.78265	-693.79059	792.73981	-745.41431	-656.74506	729.66345	-761.1756	-823.94293	919.2973	-1104.96399	-825.73083	913.25415	-871.38416	-988.04163	939.11237	-1060.23694	-984.52673	952.15869	-910.54993	-789.10974	634.79224	-1169.71692	-705.1723	479.58594	-1133.12878	-713.07843	281.08362	-1136.7489	-686.03577	71.58392	-1100.81934	-720.73035	30.73276	-1062.4906	-536.02289	56.28188	-1076.8313	-926.07019	627.46442	-829.64258	-956.84045	450.84387	-866.71228	-1050.40271	280.2858	-857.56958	-1140.401	80.2506	-899.4635	-1192.98877	54.04032	-946.90753	-1007.19489	31.67798	-915.41992	-881.27747	1646.84705	-1015.86792	NaN	NaN	NaN	NaN	NaN	NaN	NaN	NaN	NaN	NaN	NaN	NaN	NaN	NaN	NaN	NaN	NaN	NaN	NaN	NaN	NaN	NaN	NaN	NaN
